<?xml version="1.0" encoding="utf-8"?>
<!-- Generator: Adobe Illustrator 16.0.0, SVG Export Plug-In . SVG Version: 6.00 Build 0)  -->
<!DOCTYPE svg PUBLIC "-//W3C//DTD SVG 1.1//EN" "http://www.w3.org/Graphics/SVG/1.1/DTD/svg11.dtd">
<svg version="1.1" id="Layer_1" xmlns="http://www.w3.org/2000/svg" xmlns:xlink="http://www.w3.org/1999/xlink" x="0px" y="0px"
	 width="1000px" height="329.67px" viewBox="0 0 1000 329.67" enable-background="new 0 0 1000 329.67" xml:space="preserve">
<g>
	<path fill="#00AEEF" d="M41.195,293.493h6.231v26.927h-6.231V293.493z"/>
	<path fill="#00AEEF" d="M132.361,293.493v26.927h-5.116l-13.425-16.349v16.349h-6.155v-26.927h5.155l13.386,16.349v-16.349H132.361
		z"/>
	<path fill="#00AEEF" d="M192.601,293.493h6.231v26.927h-6.231V293.493z"/>
	<path fill="#00AEEF" d="M264.649,298.57h-8.617v-5.077h23.465v5.077h-8.617v21.85h-6.232V298.57z"/>
	<path fill="#00AEEF" d="M336.66,293.493h6.231v26.927h-6.231V293.493z"/>
	<path fill="#00AEEF" d="M420.864,314.649h-12.502l-2.385,5.771h-6.386l12.002-26.927h6.155l12.04,26.927h-6.54L420.864,314.649z
		 M418.902,309.917l-4.27-10.309l-4.27,10.309H418.902z"/>
	<path fill="#00AEEF" d="M489.104,298.57h-8.617v-5.077h23.465v5.077h-8.617v21.85h-6.232V298.57z"/>
	<path fill="#00AEEF" d="M561.152,293.493h6.232v26.927h-6.232V293.493z"/>
	<path fill="#00AEEF" d="M653.512,293.493l-11.655,26.927h-6.155l-11.617-26.927h6.732l8.193,19.233l8.309-19.233H653.512z"/>
	<path fill="#00AEEF" d="M731.023,315.418v5.001h-20.85v-26.927h20.35v5h-14.156v5.848h12.502v4.847h-12.502v6.231H731.023z"/>
</g>
<g>
	<path fill="#ED1C24" d="M54.799,265.749c-2.306,0-4.279-1.009-5.909-3.026c-1.635-2.019-2.45-3.986-2.45-5.909
		c-0.387-4.802-0.576-9.801-0.576-14.989c0-14.413,1.486-35.838,4.468-64.281c2.977-28.438,4.468-49.769,4.468-63.992
		c0-2.306-1.058-3.459-3.17-3.459c-0.388,0-4.036,1.153-10.954,3.459c-1.923,0.387-5.432,1.829-10.521,4.324
		c-5.094,2.5-8.985,3.747-11.674,3.747c-3.076,0-5.67-1.104-7.783-3.315c-2.117-2.207-3.171-4.851-3.171-7.927
		c0-5.571,2.689-9.702,8.071-12.395c20.561-10.183,42.756-15.466,66.586-15.854h24.501c6.918,0,13.449,0,19.601,0
		c0.577,0,1.342,0.865,2.306,2.585c0.959,1.725,1.536,2.685,1.729,2.874c0.577,1.342,0.865,2.59,0.865,3.738
		c0,6.707-4.423,11.589-13.26,14.651c-1.153,0.194-11.436,1.059-30.843,2.59c-6.918,32.951-11.147,80.458-12.683,142.523
		c0,3.067-2.45,6.279-7.351,9.63S58.065,265.749,54.799,265.749z"/>
	<path fill="#ED1C24" d="M144.732,173.796c0-3.072-0.289-7.877-0.865-14.413c-0.577-6.531-0.865-11.431-0.865-14.701
		c0-7.301,1.342-13.449,4.035-18.448c1.919-4.801,6.342-7.207,13.26-7.207c2.495,0,4.801,0.482,6.918,1.441
		c2.496,1.541,3.748,5.477,3.748,11.818c-2.306,19.795-3.459,32.672-3.459,38.626c0,9.611,1.153,18.354,3.459,26.231
		c11.53-19.984,23.826-29.978,36.896-29.978c3.648,0,7.301,0.77,10.954,2.306c8.454,35.167,12.683,60.727,12.683,76.675
		c0,4.612-0.194,9.13-0.577,13.548c-0.193,2.307-1.684,4.229-4.468,5.766c-2.788,1.536-5.814,2.306-9.08,2.306
		c-3.076,0-5.382-0.77-6.918-2.306c-5.188-6.531-7.783-16.525-7.783-29.979c0-1.153,0-3.026,0-5.621c0-2.594,0-4.563,0-5.909
		c0-11.913-1.729-21.231-5.188-27.961c-11.724,11.725-22.196,27.29-31.42,46.697c-1.153,1.924-3.459,3.559-6.918,4.9
		c-3.459,1.347-6.342,1.729-8.647,1.153c-1.923-0.383-3.847-0.865-5.765-1.441c-2.5-0.766-3.748-1.824-3.748-3.171
		c0-7.877,0.622-19.602,1.874-35.167C144.106,193.397,144.732,181.678,144.732,173.796z"/>
	<path fill="#ED1C24" d="M241.584,162.554c0.189-4.995,0.527-10.184,1.009-15.565c0.478-5.378,2.545-9.319,6.198-11.818
		c2.882-1.153,6.147-1.73,9.8-1.73c9.801,0,14.701,3.459,14.701,10.377l-1.153,28.249c-0.387,11.341,0,20.755,1.153,28.249
		c1.536,6.729,3.072,13.453,4.612,20.178c2.495,8.459,5.477,12.684,8.936,12.684c1.153,0,2.4-0.383,3.747-1.153
		c15.949-10.954,23.925-27.479,23.925-49.58c0-12.683-3.171-24.114-9.513-34.302c-3.459-5.571-5.188-10.566-5.188-14.989
		c0-5.571,3.842-8.359,11.53-8.359c7.495,0,14.125,4.229,19.89,12.683c5.188,7.495,7.972,15.376,8.359,23.637
		c1.153,19.795-1.153,37.667-6.918,53.616c-6.729,18.642-17.394,31.131-31.996,37.473c-5.958,2.5-11.53,3.747-16.719,3.747
		c-14.606,0-25.753-9.413-33.437-28.249c-6.342-15.178-9.513-33.243-9.513-54.191C241.008,169.666,241.197,166.013,241.584,162.554z
		"/>
	<path fill="#ED1C24" d="M347.947,172.643c0-18.448,6.342-27.672,19.025-27.672c2.306,0,4.801,0.387,7.495,1.153
		c5.377,1.54,8.071,5.188,8.071,10.954c0,1.923-0.337,4.999-1.009,9.224c-0.675,4.229-1.009,7.305-1.009,9.224
		c0,3.846,0.766,6.918,2.306,9.224c3.842-3.459,7.972-9.414,12.395-17.872c5.189-9.607,9.031-15.854,11.53-18.736
		c4.612-5.765,9.99-8.647,16.142-8.647c3.072,0,6.437,0.77,10.089,2.306l5.765,5.477c0.766,3.076,1.536,8.747,2.306,17.007
		c0.766,6.918,1.918,12.3,3.459,16.142c6.531-7.301,12.972-14.602,19.313-21.907c8.454-7.877,16.525-11.818,24.213-11.818
		c3.648,0,7.301,0.676,10.954,2.018c2.883,1.923,4.612,5.188,5.188,9.8c0.189,3.847,0.383,7.783,0.576,11.818
		c2.113,15.565,3.172,29.501,3.172,41.797c0,22.101-3.459,42.085-10.377,59.957c-1.729,5.954-6.63,8.936-14.701,8.936
		c-4.423,0-8.648-1.153-12.683-3.459c-0.771,0-1.347-1.059-1.729-3.171c-0.388-2.5-0.289-4.711,0.288-6.63
		c5.765-15.565,8.647-32.86,8.647-51.886c0-10.76-0.964-22.096-2.882-34.014c0-1.342-0.387-2.018-1.153-2.018
		c-2.306,0-4.324,1.635-6.053,4.9c-9.8,15.953-18.835,35.455-27.096,58.516c-1.347,2.882-3.991,5.477-7.927,7.782
		c-3.941,2.307-7.833,3.459-11.674,3.459c-4.612,0-7.977-1.873-10.089-5.621c-2.117-3.747-3.171-8.215-3.171-13.403
		c0-3.459,0.577-8.936,1.729-16.431c1.153-7.494,1.729-13.16,1.729-17.007c0-4.801-0.676-9.125-2.018-12.972
		c-3.076,5.383-7.977,15.566-14.701,30.556c-5.576,12.683-10.666,22.483-15.277,29.401c-3.076,4.229-7.688,6.342-13.836,6.342
		c-6.341,0-10.426-2.257-12.25-6.774c-1.829-4.513-3.027-10.039-3.603-16.574c-0.388-4.802-0.482-10.954-0.289-18.448
		c0.383-11.337,0.577-17.678,0.577-19.024c0-2.495-0.243-6.198-0.721-11.098C348.186,178.552,347.947,174.949,347.947,172.643z"/>
	<path fill="#ED1C24" d="M692.981,136.625c7.301,2.9,14.602,5.9,21.907,8.999c7.878,3.873,13.26,8.71,16.143,14.512
		c0.576,0.774,0.864,1.842,0.864,3.193c0,5.418-1.828,9.287-5.477,11.611c-1.729,0.969-3.652,1.451-5.765,1.451
		c-3.271,0-9.418-2.739-18.448-8.215c-9.035-5.477-16.143-8.215-21.331-8.215c-3.847,0-7.594,1.063-11.242,3.18
		c-1.729,1.158-2.594,2.797-2.594,4.914c0,2.698,1.585,5.778,4.756,9.247c3.171,3.468,6.004,5.684,8.503,6.648
		c19.984,7.134,35.167,15.516,45.545,25.146c3.459,3.279,5.188,7.806,5.188,13.584c0,6.747-2.067,13.588-6.198,20.524
		c-4.134,6.937-10.858,12.765-20.178,17.484c-9.322,4.72-18.88,7.08-28.681,7.08c-17.295,0-29.402-7.206-36.32-21.619
		c-0.576-1.152-0.864-2.495-0.864-4.035c0-3.266,1.535-6.292,4.612-9.08c3.071-2.783,6.341-4.274,9.8-4.468
		c2.689-0.383,5.09,1.347,7.207,5.188c2.495,4.423,4.513,7.018,6.053,7.783c3.459,1.729,7.396,2.594,11.818,2.594
		c6.725,0,12.634-1.779,17.728-5.346c5.09-3.563,7.639-8.233,7.639-14.017c0-4.432-4.423-8.67-13.26-12.72
		c-9.8-4.237-19.506-8.382-29.113-12.426c-10.377-5.396-17.583-12.233-21.619-20.52c-1.152-2.504-1.729-5.009-1.729-7.513
		c0-8.67,5.478-17.052,16.431-25.146c10.377-7.706,20.561-11.562,30.555-11.562C687.982,134.881,690.676,135.462,692.981,136.625z"
		/>
</g>
<path fill="#00AEEF" d="M900.22,288.439c-22.088-4.239-44.091-6.764-66.565-7.653c-26.099-0.75-60.886-15.637-66.339-44.218
	c-4.089-21.961-8.177-43.92-12.268-65.882c-5.559-30.482,31.597-76.987,59.604-84.208c34.075-5.401,66.457,10.984,100.413,11.614
	c34.54,0.57,85.177,30.04,77.491,71.097c-4.974,26.976-13.331,52.756-21.938,78.747C960.969,276.751,929.817,294.6,900.22,288.439
	 M815.491,226.073c12.637,13.56,35.134,1.695,44.531-11.865c13.714-19.877,12.79-43.144,9.554-66.255
	c0-1.542-3.081-0.771-3.081-3.081c-6.473,1.54-14.331,3.081-13.562,8.781c0,13.561,4.008,26.965,0.772,40.524
	c-1.542,12.021-9.402,30.202-22.342,22.344c-17.412-10.478-16.797-38.983-8.784-57.32c0.769-3.236-0.77-5.548-2.311-7.243
	c-6.472-3.081-13.559,0.925-15.257,6.473C798.08,181.542,798.39,208.046,815.491,226.073 M876.352,173.53
	c-1.694,19.569-2.619,39.137,0,59.63c0.772,0.924,1.696,2.621,3.391,3.544c6.779,1.695,12.79-2.62,14.483-7.704
	c1.696-7.703-2.619-15.408-1.693-23.882c21.264-7.705,55.47-17.102,52.079-46.225c-17.103-19.57-44.376-25.424-68.26-16.179
	c-2.619,1.077-5.237,7.703-1.694,11.093c1.694,0.924,4.16,0.924,5.854,1.695C877.124,160.74,876.816,167.52,876.352,173.53
	 M893.302,169.987c0-4.161,2.62-7.55,2.62-11.866c0-2.619-4.315-5.084-3.39-5.084c12.789-3.388,24.807,5.084,34.977,12.79
	c-3.392,13.56-21.265,25.423-33.283,21.262C889.143,185.394,893.302,176.15,893.302,169.987"/>
<g>
	<path fill="#00AEEF" d="M613.544,247.849c-3.405,3.191-6.512,6.632-10.129,9.398c-19.206,14.69-40.628,18.714-63.776,11.978
		c-14.571-4.237-23.702-14.566-28.588-28.649c-5.309-15.296-5.038-30.71-0.151-46.086c8.596-27.036,21.1-52.436,32.846-78.146
		c5.553-12.149,8.612-24.978,9.377-38.177c0.857-14.838,0.712-29.735,0.919-44.606c0.057-4.237-0.336-8.478-0.247-12.713
		c0.2-9.6,6.85-15.011,16.357-13.523c7.933,1.24,13.891,5.519,18.424,11.956c5.627,7.991,7.618,17.13,8.128,26.669
		c1.35,25.283-2.862,49.348-15.666,71.562c-1.432,2.485-2.505,5.32-3.079,8.127c-1.026,5.019,2.292,8.368,7.313,7.539
		c2.187-0.361,4.338-1.235,6.376-2.163c11.834-5.385,24.115-8.427,37.053-5.617c5.048,1.093,10.151,3.136,14.527,5.87
		c9.443,5.897,12.48,15.395,7.877,25.543c-8.532,18.812-22.657,31.229-43.396,35.084c-7.686,1.427-15.464,2.453-23.319,1.215
		c-5.916-0.935-8.873-3.626-9.7-8.678c-0.665-4.053,0.784-7.456,3.963-9.671c3.596-2.505,7.544-4.568,11.51-6.465
		c4.067-1.947,8.427-3.281,12.486-5.239c2.245-1.083,4.358-2.67,6.141-4.425c3.141-3.097,2.933-6.409-0.427-9.271
		c-5.774-4.923-12.59-5.57-19.097-2.601c-6.703,3.059-13.449,6.649-19.075,11.332c-17.356,14.438-27.311,33.158-28.958,55.812
		c-0.728,10.005,1.666,19.371,9.449,26.497c7.369,6.749,15.723,8.633,24.997,4.234c2.213-1.051,3.982-1.09,6.281,0.039
		c9.399,4.634,19.252,5.586,29.408,2.791c0.443-0.121,0.903-0.179,1.359-0.243C612.785,247.209,612.861,247.314,613.544,247.849"/>
	<path fill="#00AEEF" d="M638.378,182.206c1.076,2.724,2.574,4.902,2.716,7.165c0.483,7.801-1.376,15.047-8.432,19.432
		c-16.402,10.201-34.106,12.926-52.83,7.934c-1.987-0.53-3.971-1.857-5.461-3.321c-4.045-3.971-3.395-10.382,1.635-12.891
		c3.337-1.664,7.32-2.916,10.996-2.872C605.479,197.879,622.812,194.626,638.378,182.206"/>
	<path fill="#00AEEF" d="M633.118,214.526c1.902,3.58,1.671,6.892,0.201,10.112c-5.238,11.498-14.731,17.285-26.751,19.28
		c-6.393,1.057-12.822,0.437-18.933-1.84c-2.335-0.869-4.668-2.151-6.538-3.778c-5.179-4.506-4.604-11.293,1.106-15.085
		c0.706-0.469,1.782-0.757,2.598-0.619c16.381,2.769,31.847-0.163,46.657-7.327C631.952,215.032,632.458,214.821,633.118,214.526"/>
</g>
</svg>
