<?xml version="1.0" encoding="utf-8"?>
<!-- Generator: Adobe Illustrator 16.0.0, SVG Export Plug-In . SVG Version: 6.00 Build 0)  -->
<!DOCTYPE svg PUBLIC "-//W3C//DTD SVG 1.1//EN" "http://www.w3.org/Graphics/SVG/1.1/DTD/svg11.dtd">
<svg version="1.1" id="Layer_1" xmlns="http://www.w3.org/2000/svg" xmlns:xlink="http://www.w3.org/1999/xlink" x="0px" y="0px"
	 width="200px" height="173.333px" viewBox="0 0 200 173.333" enable-background="new 0 0 200 173.333" xml:space="preserve">
<path fill="#00AEEF" d="M134.271,12.423c-28.25-0.524-55.194-14.156-83.544-9.663C27.425,8.767-3.488,47.46,1.136,72.821
	c3.403,18.271,6.805,36.541,10.208,54.813c4.537,23.78,33.479,36.165,55.194,36.789c18.698,0.74,37.005,2.841,55.38,6.367
	c24.626,5.127,50.546-9.724,58.574-33.698c7.159-21.626,14.112-43.073,18.25-65.518C205.139,37.416,163.008,12.897,134.271,12.423z
	 M127.414,130.581c-2.699,5.924-7.591,8.906-13.785,9.936c-3.295,0.545-6.608,0.225-9.757-0.949
	c-1.204-0.447-2.406-1.107-3.37-1.947c-2.669-2.32-2.372-5.818,0.57-7.771c0.363-0.242,0.919-0.391,1.339-0.32
	c8.441,1.428,16.412-0.084,24.045-3.775c0.254-0.121,0.515-0.23,0.855-0.383C128.29,127.214,128.172,128.921,127.414,130.581z
	 M127.076,122.421c-8.453,5.256-17.576,6.66-27.226,4.088c-1.024-0.273-2.046-0.957-2.814-1.711
	c-2.085-2.047-1.75-5.352,0.842-6.643c1.721-0.859,3.773-1.504,5.667-1.48c9.522,0.117,18.455-1.561,26.477-7.961
	c0.555,1.402,1.326,2.525,1.399,3.693C131.67,116.427,130.712,120.161,127.076,122.421z M136.58,95.626
	c-4.396,9.695-11.676,16.094-22.364,18.08c-3.96,0.736-7.969,1.266-12.017,0.627c-3.049-0.482-4.572-1.869-4.999-4.473
	c-0.342-2.088,0.404-3.842,2.043-4.982c1.853-1.293,3.888-2.355,5.932-3.332c2.095-1.004,4.343-1.691,6.434-2.699
	c1.157-0.559,2.247-1.377,3.165-2.281c1.618-1.596,1.512-3.303-0.22-4.779c-2.976-2.535-6.488-2.869-9.842-1.338
	c-3.454,1.574-6.931,3.426-9.83,5.84c-8.944,7.439-14.074,17.086-14.923,28.762c-0.375,5.156,0.859,9.982,4.87,13.654
	c3.797,3.479,8.103,4.447,12.882,2.182c1.14-0.541,2.052-0.563,3.235,0.02c4.845,2.389,9.922,2.879,15.156,1.438
	c0.228-0.061,0.465-0.092,0.699-0.123c0.031-0.008,0.07,0.045,0.422,0.322c-1.755,1.645-3.355,3.418-5.221,4.842
	c-9.897,7.572-20.936,9.646-32.866,6.176c-7.508-2.186-12.214-7.508-14.732-14.766c-2.736-7.883-2.596-15.826-0.077-23.75
	c4.429-13.932,10.873-27.021,16.926-40.272c2.861-6.26,4.438-12.872,4.833-19.673c0.442-7.646,0.367-15.324,0.473-22.987
	c0.03-2.183-0.173-4.369-0.127-6.551c0.104-4.948,3.529-7.736,8.429-6.969c4.089,0.64,7.159,2.844,9.495,6.162
	c2.899,4.118,3.926,8.828,4.188,13.743c0.696,13.03-1.475,25.431-8.073,36.878c-0.738,1.281-1.29,2.742-1.586,4.188
	c-0.529,2.587,1.181,4.313,3.768,3.886c1.128-0.187,2.236-0.637,3.286-1.114c6.099-2.775,12.428-4.343,19.095-2.895
	c2.602,0.563,5.231,1.615,7.487,3.024C137.387,85.502,138.953,90.396,136.58,95.626z"/>
</svg>
